<svg xmlns="http://www.w3.org/2000/svg" viewBox="0 0 32 32">
  <rect width="32" height="32" rx="6" fill="#1a1a1a"/>
  <path d="M16 10.5a5.5 5.5 0 100 11 5.5 5.5 0 000-11zm0 8a2.5 2.5 0 110-5 2.5 2.5 0 010 5z" fill="#f05545"/>
  <path d="M26.5 14h-1.7a9.2 9.2 0 00-.8-2l1.2-1.2a1.5 1.5 0 00-2.1-2.1L21.9 10a9.2 9.2 0 00-2-.8V7.5a1.5 1.5 0 00-3 0v1.7a9.2 9.2 0 00-2 .8l-1.2-1.2a1.5 1.5 0 00-2.1 2.1l1.2 1.2a9.2 9.2 0 00-.8 2H10.5a1.5 1.5 0 000 3h1.7a9.2 9.2 0 00.8 2l-1.2 1.2a1.5 1.5 0 002.1 2.1l1.2-1.2a9.2 9.2 0 002 .8v1.7a1.5 1.5 0 003 0v-1.7a9.2 9.2 0 002-.8l1.2 1.2a1.5 1.5 0 002.1-2.1L23 19a9.2 9.2 0 00.8-2h1.7a1.5 1.5 0 000-3z" fill="#f05545"/>
</svg>
