<?xml version="1.0" encoding="UTF-8"?>
<svg id="Layer_1" xmlns="http://www.w3.org/2000/svg" version="1.1" viewBox="0 0 640 200">
  <!-- Generator: Adobe Illustrator 29.8.7, SVG Export Plug-In . SVG Version: 2.1.1 Build 1)  -->
  <defs>
    <style>
      .st0 {
        fill: #f95d5d;
      }

      .st1 {
        font-family: Arial-Black, 'Arial Black';
        font-size: 50.92px;
        font-weight: 800;
        letter-spacing: .2em;
      }
    </style>
  </defs>
  <polygon points="207.26 3.64 610.72 4.43 610.72 26.44 610.72 177.84 587.4 177.84 585.95 26.11 183.69 25.94 48.67 25.94 48.67 156.11 66.75 156.11 66.75 145.96 67.03 145.69 164.69 145.69 164.69 197.43 66.75 197.43 66.75 179.69 25.28 179.69 25.28 3.64 207.26 3.64"/>
  <polygon class="st0" points="164.87 44.22 164.87 138.19 142.76 138.19 142.94 65.61 125.68 65.61 125.22 138.19 106.04 138.19 106.04 65.61 87.77 65.61 87.77 138.1 87.49 138.37 66.75 138.37 66.57 44.22 164.87 44.22"/>
  <polygon class="st0" points="180.56 53.18 228.9 53.18 228.9 70.33 197.16 70.19 197.16 83.59 228.9 83.95 228.9 98.83 197.16 98.83 197.16 113.01 228.83 113.01 229.05 113.23 229.05 129.32 180.56 129.46 180.56 53.18"/>
  <polyline class="st0" points="535.24 83.59 535.24 70.19 567.13 70.06 567.13 53.18 566.99 53.18 566.99 53.18 518.64 53.18 518.64 53.32 518.64 53.32 518.64 69.41 518.64 98.77 535.24 98.88 550.53 99.05 550.53 112.45 535.24 112.38 518.64 112.31 518.64 129.46 518.79 129.46 518.79 129.46 567.13 129.46 567.13 83.76 550.53 83.76 535.24 83.59 535.24 70.19"/>
  <polygon class="st0" points="318.32 53.2 318.32 129.3 301.16 129.3 301.31 69.8 287.91 69.8 287.55 129.3 272.66 129.3 272.66 69.8 258.48 69.8 258.48 129.23 258.27 129.44 242.18 129.44 242.04 53.2 318.32 53.2"/>
  <polygon class="st0" points="394.62 53.18 442.97 53.18 442.97 70.33 411.22 70.19 411.22 83.59 442.97 83.95 442.97 98.83 411.22 98.83 411.22 113.01 442.89 113.01 443.11 113.23 443.11 129.32 394.62 129.46 394.62 53.18"/>
  <path class="st0" d="M380.7,129.46V53.18s-32.79.1-32.79.1v-.1h-16.6v76.29l1.05-.04v.04h48.34ZM364.1,112.45l-16.19-.07v-13.51l16.19.18v13.4ZM364.1,69.62v14.18h-16.19v-14.18h16.19Z"/>
  <text class="st1" transform="translate(382 177.84)"><tspan x="0" y="0">ONLY</tspan></text>
  <path class="st0" d="M497.21,94.48l8.3-5.58v-35.72h-.17s0,0,0,0h-48.34v76.29l16.6-.59v-30l15.31.17v30.42h16.6v-27.11l-8.3-7.87ZM488.91,83.76l-15.31-.17v-13.4l15.31.07v13.5Z"/>
</svg>